HIERARCHY
ROOT Hips
{
	OFFSET 54.722500 -11.634714 85.667000
	CHANNELS 6 Xposition Yposition Zposition Xrotation Yrotation Zrotation
	JOINT spine
	{
		OFFSET 0.000000 -0.367607 6.392601
		CHANNELS 3 Xrotation Yrotation Zrotation
		JOINT spine1
		{
			OFFSET 0.000000 -0.000001 9.176109
			CHANNELS 3 Xrotation Yrotation Zrotation
			JOINT spine2
			{
				OFFSET 0.000000 -0.000002 8.792381
				CHANNELS 3 Xrotation Yrotation Zrotation
				JOINT Neck
				{
					OFFSET 0.000000 -1.076243 22.573700
					CHANNELS 3 Xrotation Yrotation Zrotation
					JOINT Head
					{
						OFFSET 0.000000 -0.000001 6.820114
						CHANNELS 3 Xrotation Yrotation Zrotation
						End Site
						{
							OFFSET 0.000000 5.444268 16.508499
						}
					}
				}
				JOINT RightShoulder
				{
					OFFSET -3.702209 0.515507 9.495087
					CHANNELS 3 Xrotation Yrotation Zrotation
					JOINT RightArm
					{
						OFFSET 0.000000 -0.000003 12.453705
						CHANNELS 3 Xrotation Yrotation Zrotation
						JOINT RightArmRoll
						{
							OFFSET 0.000000 -0.000001 6.286865
							CHANNELS 3 Xrotation Yrotation Zrotation
							JOINT RightForeArm
							{
								OFFSET 0.000000 -0.000003 18.311401
								CHANNELS 3 Xrotation Yrotation Zrotation
								JOINT RightForeArmRoll
								{
									OFFSET 0.000000 -0.000001 7.054825
									CHANNELS 3 Xrotation Yrotation Zrotation
									JOINT RightHand
									{
										OFFSET 0.000000 -0.000002 14.157501
										CHANNELS 3 Xrotation Yrotation Zrotation
										End Site
										{
											OFFSET 0.000000 0.000000 0.100006
										}
									}
								}
							}
						}
					}
				}
				JOINT LeftShoulder
				{
					OFFSET 3.702209 0.515507 9.495087
					CHANNELS 3 Xrotation Yrotation Zrotation
					JOINT LeftArm
					{
						OFFSET 0.000000 -0.000003 12.453705
						CHANNELS 3 Xrotation Yrotation Zrotation
						JOINT LeftArmRoll
						{
							OFFSET 0.000000 -0.000001 6.286865
							CHANNELS 3 Xrotation Yrotation Zrotation
							JOINT LeftForeArm
							{
								OFFSET 0.000000 -0.000003 18.311401
								CHANNELS 3 Xrotation Yrotation Zrotation
								JOINT LeftForeArmRoll
								{
									OFFSET 0.000000 -0.000001 7.054825
									CHANNELS 3 Xrotation Yrotation Zrotation
									JOINT LeftHand
									{
										OFFSET 0.000000 -0.000002 14.157501
										CHANNELS 3 Xrotation Yrotation Zrotation
										End Site
										{
											OFFSET 0.000000 0.000000 0.100006
										}
									}
								}
							}
						}
					}
				}
			}
		}
	}
	JOINT RightUpLeg
	{
		OFFSET -5.666149 0.871611 -1.039032
		CHANNELS 3 Xrotation Yrotation Zrotation
		JOINT RightUpLegRoll
		{
			OFFSET 0.000000 -0.000003 16.600502
			CHANNELS 3 Xrotation Yrotation Zrotation
			JOINT RightLeg
			{
				OFFSET 0.000000 0.000003 -20.557198
				CHANNELS 3 Xrotation Yrotation Zrotation
				JOINT RightLegRoll
				{
					OFFSET 0.000000 -0.000003 20.624397
					CHANNELS 3 Xrotation Yrotation Zrotation
					JOINT RightFoot
					{
						OFFSET 0.000000 -0.000003 17.166397
						CHANNELS 3 Xrotation Yrotation Zrotation
						JOINT RightToeBase
						{
							OFFSET 0.000000 -0.000003 14.350204
							CHANNELS 3 Xrotation Yrotation Zrotation
							End Site
							{
								OFFSET 0.006081 0.801059 6.949707
							}
						}
					}
				}
			}
		}
	}
	JOINT LeftUpLeg
	{
		OFFSET 5.666149 0.871611 -1.039032
		CHANNELS 3 Xrotation Yrotation Zrotation
		JOINT LeftUpLegRoll
		{
			OFFSET 0.000000 -0.000003 16.600601
			CHANNELS 3 Xrotation Yrotation Zrotation
			JOINT LeftLeg
			{
				OFFSET 0.000000 -0.000004 20.557098
				CHANNELS 3 Xrotation Yrotation Zrotation
				JOINT LeftLegRoll
				{
					OFFSET 0.000000 -0.000003 20.815102
					CHANNELS 3 Xrotation Yrotation Zrotation
					JOINT LeftFoot
					{
						OFFSET 0.000000 -0.000003 16.975708
						CHANNELS 3 Xrotation Yrotation Zrotation
						JOINT LeftToeBase
						{
							OFFSET 0.000000 -0.000003 14.350204
							CHANNELS 3 Xrotation Yrotation Zrotation
							End Site
							{
								OFFSET -0.027260 0.801060 6.949707
							}
						}
					}
				}
			}
		}
	}
}
MOTION
Frames: 6
Frame Time: 0.041667
53.928097 -11.338816 85.665192 -6.285487 2.690820 -1.359292 -0.926699 -0.093667 -0.086362 2.148900 -0.181732 -0.173231 3.793979 -0.183758 -0.171009 9.348819 -0.601893 -0.905842 8.017102 3.449686 -1.393415 8.714457 -52.868249 11.318751 -43.050921 -130.961801 -99.897227 0.000001 -0.000002 -0.000002 109.783502 10.537701 -22.944603 -0.000002 0.000001 -2.999999 -5.000218 -7.998730 0.000186 2.889984 48.197278 -5.037813 -47.459214 131.697071 67.167274 0.000003 -0.000001 0.000003 104.424406 -2.186496 9.438718 0.000006 -0.000006 3.000001 -5.000230 7.998781 -0.000169 4.826520 -177.735046 0.058170 -179.999991 0.000005 -1.182997 174.765321 -2.465679 -0.493827 0.000002 0.000001 0.037253 68.815474 6.920004 2.085900 25.456964 -7.355614 0.000010 3.365463 171.311786 -2.594429 -0.000005 -0.000004 -1.035480 -9.246815 1.268593 0.793162 -0.000001 -0.000001 -0.011630 70.137047 -6.017963 -4.377854 25.457959 7.355614 -0.001529 
53.925991 -11.338009 85.664001 -6.292483 2.691550 -1.362819 -0.917148 -0.093497 -0.087673 2.168101 -0.180535 -0.175718 3.813180 -0.182590 -0.173487 9.194305 -0.587210 -0.896083 8.084950 3.427861 -1.383233 8.764898 -52.879260 11.377068 -42.878206 -130.653295 -99.744285 0.000000 -0.000001 -0.000001 110.198682 10.619275 -23.308719 -0.000000 0.000002 -2.999998 -5.000217 -7.998733 0.000186 2.756485 48.198241 -4.872302 -47.264247 131.319621 67.958347 0.000003 0.000002 0.000003 104.572867 -2.241157 9.815588 0.000004 -0.000005 3.000003 -5.000231 7.998784 -0.000167 4.832713 -177.735073 0.059512 -179.999991 0.000005 -1.182997 174.764720 -2.465677 -0.493852 0.000003 0.000001 0.037257 68.814948 6.920007 2.086032 25.456957 -7.355616 0.000010 3.373531 171.310857 -2.597757 -0.000005 -0.000004 -1.035570 -9.245617 1.269585 0.792964 -0.000001 -0.000001 -0.011596 70.136358 -6.018492 -4.377182 25.457964 7.355614 -0.001529 
53.925396 -11.341812 85.664383 -6.298901 2.692282 -1.366043 -0.908127 -0.093478 -0.088833 2.186230 -0.179759 -0.177919 3.831308 -0.181840 -0.175676 9.051761 -0.570666 -0.886232 8.138777 3.405484 -1.372717 8.793499 -52.888262 11.409559 -42.706984 -130.364310 -99.601138 0.000000 -0.000000 -0.000001 110.582518 10.692629 -23.649959 0.000000 0.000004 -2.999998 -5.000217 -7.998730 0.000184 2.619144 48.203244 -4.701441 -47.095736 130.956405 68.760915 0.000005 -0.000000 0.000003 104.712462 -2.296434 10.186505 0.000006 -0.000005 3.000002 -5.000235 7.998782 -0.000168 4.838183 -177.736084 0.059257 -179.999991 0.000005 -1.182997 174.763395 -2.463686 -0.494725 0.000003 0.000001 0.037262 68.813992 6.919987 2.086288 25.456960 -7.355614 0.000010 3.380275 171.308917 -2.600842 -0.000005 -0.000005 -1.035610 -9.245820 1.270492 0.792861 -0.000002 -0.000000 -0.011561 70.136337 -6.018790 -4.377134 25.457961 7.355614 -0.001528 
53.921787 -11.340710 85.675797 -6.304559 2.693018 -1.368903 -0.899808 -0.093627 -0.089803 2.202941 -0.179466 -0.179761 3.848019 -0.181569 -0.177504 8.924105 -0.552249 -0.876333 8.176051 3.382835 -1.361899 8.797456 -52.894699 11.412952 -42.539504 -130.101484 -99.473325 0.000000 0.000001 -0.000002 110.924103 10.757621 -23.959091 -0.000000 0.000002 -2.999998 -5.000217 -7.998730 0.000183 2.479690 48.212430 -4.527360 -46.956830 130.615538 69.571337 0.000004 -0.000002 0.000002 104.840433 -2.353168 10.545513 0.000001 -0.000005 2.999999 -5.000230 7.998783 -0.000167 4.842729 -177.738092 0.057153 -179.999991 0.000005 -1.182997 174.761182 -2.459691 -0.494455 0.000003 0.000001 0.037266 68.812722 6.919983 2.086265 25.456962 -7.355616 0.000010 3.385363 171.307961 -2.603499 -0.000005 -0.000004 -1.035600 -9.247694 1.271295 0.792870 -0.000001 -0.000001 -0.011528 70.137013 -6.018930 -4.377423 25.457964 7.355613 -0.001529 
53.925591 -11.341813 85.674095 -6.309308 2.693779 -1.371303 -0.892366 -0.093960 -0.090546 2.217879 -0.179719 -0.181175 3.862958 -0.181838 -0.178903 8.814310 -0.531945 -0.866436 8.194273 3.360151 -1.350813 8.773936 -52.897950 11.383980 -42.379845 -129.869996 -99.368399 0.000000 -0.000001 -0.000002 111.212746 10.814956 -24.227031 -0.000000 0.000001 -3.000001 -5.000218 -7.998731 0.000185 2.339877 48.226159 -4.352153 -46.851795 130.303590 70.388316 0.000004 -0.000001 0.000005 104.953834 -2.411165 10.892498 0.000006 -0.000006 2.999999 -5.000232 7.998785 -0.000166 4.846152 -177.741084 0.052953 -179.999991 0.000005 -1.182997 174.757971 -2.453707 -0.494045 0.000003 0.000001 0.037270 68.811028 6.919951 2.086166 25.456960 -7.355614 0.000010 3.388487 171.305994 -2.605798 -0.000005 -0.000005 -1.035520 -9.251507 1.271971 0.793010 -0.000002 -0.000000 -0.011494 70.138646 -6.018789 -4.378311 25.457963 7.355613 -0.001528 
53.923191 -11.342712 85.667892 -6.312969 2.694575 -1.373181 -0.885976 -0.094492 -0.091021 2.230711 -0.180579 -0.182086 3.875789 -0.182709 -0.179798 8.725327 -0.509737 -0.856591 8.190906 3.337720 -1.339504 8.720112 -52.897319 11.319351 -42.230496 -129.676483 -99.291737 0.000000 0.000001 -0.000001 111.437665 10.864461 -24.447511 -0.000000 -0.000000 -3.000000 -5.000218 -7.998734 0.000185 2.201453 48.244788 -4.177943 -46.781407 130.029918 71.205849 0.000004 -0.000001 -0.000000 105.049525 -2.470948 11.224450 0.000004 -0.000004 2.999999 -5.000229 7.998782 -0.000165 4.848258 -177.746084 0.046320 -179.999991 0.000005 -1.183994 174.753655 -2.443733 -0.494328 0.000003 0.000001 0.037275 68.808822 6.919959 2.086007 25.456962 -7.355614 0.000009 3.389335 171.303999 -2.607593 -0.000005 -0.000005 -1.035360 -9.257520 1.272513 0.793299 -0.000001 -0.000001 -0.011461 70.141330 -6.018306 -4.379879 25.457963 7.355614 -0.001529 
